<?xml version="1.0" encoding="utf-8"?>
<!-- Generator: Adobe Illustrator 14.0.0, SVG Export Plug-In . SVG Version: 6.00 Build 43363)  -->
<!DOCTYPE svg PUBLIC "-//W3C//DTD SVG 1.1//EN" "http://www.w3.org/Graphics/SVG/1.1/DTD/svg11.dtd">
<svg version="1.1" id="Layer_1" xmlns="http://www.w3.org/2000/svg" xmlns:xlink="http://www.w3.org/1999/xlink" x="0px" y="0px"
	 width="344.226px" height="379.629px" viewBox="0 0 344.226 379.629" enable-background="new 0 0 344.226 379.629"
	 xml:space="preserve">
<g>
	<path fill-rule="evenodd" clip-rule="evenodd" stroke="#000000" d="M126.27,331.777c-0.065,0.005-0.124,0.02-0.192,0.02
		c0.022,0.087,0.045,0.175,0.063,0.261h-82.08v30h8.4c0.16-3.921-0.319-8.479,0.24-12h7.2v12h9.84c0.16-3.921-0.319-8.479,0.24-12
		c2.321,0.158,5.278-0.318,7.2,0.239v11.761h8.4v-18.96h47.444c0.019-0.048,0.041-0.094,0.063-0.141
		C130.339,339.57,128.041,335.815,126.27,331.777z"/>
	<path fill-rule="evenodd" clip-rule="evenodd" stroke="#000000" d="M263.662,333.977c-0.288-1.175-1.659-2.429-2.4-3.841
		c-2.229-4.245-3.254-9.058-3.6-15.119c-3.216,2.044-5.634,7.409-5.04,12.72c0.174,1.556,1.102,2.911,0.96,4.32h-35.408
		c-0.471,0.167-0.965,0.13-1.418-0.05c-1.705,3.835-3.862,7.429-6.454,10.672c0.229,0.104,0.419,0.249,0.59,0.412
		c2.596-0.794,7.397,0.006,10.771,0.006c11.052-0.001,22.394-0.195,32.16,0.239c-2.642,6.03-0.523,14.401,3.84,17.04
		c0.437-5.716,1.141-10.432,3.12-14.64c0.823-1.751,2.51-2.923,2.88-4.561C264.034,339.526,263.998,335.35,263.662,333.977z"/>
	<path stroke="#000000" d="M328.461,226.457c-8.915-0.431-17.651-1.645-18.72-9.36c-0.745-5.383,1.739-9.284,3.84-12.72
		c4.936-8.075,13.081-16.386,21.6-19.2c-2.175-2.615-5.614-3.387-10.56-3.84c-3.639-0.333-10.633,0.417-12.48-1.92
		c-2.438-3.086,0.988-9.631,2.16-12.96c4.83-13.722,2.643-33.34-0.72-46.8c0.014,7.746-2.136,13.483-5.04,17.76
		c-0.979,1.44-1.982,2.893-3.12,3.84c0.124-14.916-3.333-24.825-9.12-34.32c-2.672-4.383-5.402-9.353-6.479-15.36
		c-1.082-6.032-0.785-12.848,0.239-20.16c-5.022,2.177-8.729,7.75-11.279,13.2c-9.959-11.282-18.989-24.887-27.36-37.44
		c-1.193-1.79-2.278-3.666-3.84-5.04c0.952,1.941,1.663,3.632,2.399,6.48c0.396,1.529,1.829,6.045-0.96,6.72
		c-2.131,0.516-5.662-2.243-7.199-3.36c-6.42-4.664-11.35-10.87-16.32-15.84c-6.786-6.786-12.943-13.924-19.68-20.16
		c-0.337-0.312-1.061-1.8-1.2-0.72c4.784,9.572,8.587,19.013,11.76,29.76c1.061,3.591,2.4,7.361,2.4,11.52
		c0,5.751-2.177,10.439-4.561,14.88c-2.36,4.397-4.821,8.197-7.439,12.24c-5.269,8.135-10.808,16.122-11.521,27.6
		c-0.463,7.446,1.132,13.788,3.84,18.48c5.65,9.788,14.994,14.836,22.32,23.28c3.4,3.919,7.51,8.806,8.64,14.4
		c2.568,12.708-6.453,23.464-12.72,28.8c-7.037,5.992-15.641,10.494-27.6,10.08c-5.049-3.757-7.436-8.988-6.721-16.32
		c0.421-4.309,1.731-8.449,1.2-12.72c-0.107-0.865-0.414-2.108-0.72-2.88c-0.782-1.977-3.367-3.782-4.08-5.52
		c-0.123-0.298-0.229-0.662-0.327-1.056h-6.513c-2.101,0.466-4.242,0.158-6.12,0.576c-2.636,0.585-5.506,2.386-7.2,4.08
		c-2.673,2.673-4.396,6.537-4.32,12c-3.482,2.815-3.025,10.161,0.48,12.72c-0.027-3.782,2.274-6.032,4.56-7.2
		c1.171-0.599,2.519-0.589,3.84-1.2c3.542-1.638,6.008-6.045,9.36-5.52c0.525,3.272-1.673,5.617-3.36,7.68
		c-3.635,4.445-7.517,7.618-12.48,11.04c-2.121,1.462-5.33,4.007-7.44,4.32c-3.038,0.45-7.512-1.181-10.8-2.4
		c-9.586-3.553-17.341-10.149-21.84-18c-2.159-3.768-4.426-8.946-4.32-14.4c0.129-6.641,3.791-11.987,7.44-16.56
		c3.696-4.632,8.018-8.503,12-12c8.508-7.472,16.862-15.221,15.84-31.68c-0.702-11.305-6.485-19.825-11.52-27.6
		c-5.045-7.792-12-16.179-12-27.12c0-3.901,1.113-7.968,2.16-11.52c3.109-10.551,7.776-20.917,12-29.76
		c-0.314-0.757-1.093,0.382-1.2,0.48c-0.417,0.382-0.815,1.048-1.2,1.44c-6.351,6.479-12.061,12.541-18.48,18.96
		c-5.045,5.045-10.142,11.252-16.32,15.84c-1.469,1.091-5.248,4.054-7.44,3.36c-2.394-0.758-1.2-5.147-0.72-6.96
		c0.716-2.707,1.97-4.729,2.16-6.48c-9.494,13.343-18.395,28.422-28.8,40.56c-0.607,0.709-1.23,1.93-2.4,1.92
		c-1.984-4.631-5.399-9.743-9.36-12.24c-0.265-0.167-1.267-1.203-1.68-0.48c1.062,7.208,1.31,13.958,0.24,19.92
		c-1.078,6.011-3.814,10.985-6.48,15.36c-5.818,9.547-9.272,19.513-9.12,34.56c-1.913-2.826-4.522-5.413-6-8.88
		c-1.611-3.78-1.462-8.171-2.4-12.96c-1.574,10.373-4.132,20.937-3.36,33.36c0.268,4.304,1.426,9.469,2.88,13.68
		c1.068,3.095,4.825,9.994,2.16,12.96c-1.88,2.093-9.015,1.342-12.48,1.68c-4.937,0.481-8.35,1.22-10.56,3.84
		c5.428,1.667,11.084,6.078,15.84,11.28c4.46,4.879,9.008,10.876,9.6,17.76c0.904,10.525-9.289,11.77-18.96,12.24
		c2.63,2.377,5.821,4.486,9.12,6.96c6.281,4.709,12.538,9.449,18,15.12c2.565,2.662,5.898,6.168,6.48,10.32
		c0.683,4.872-2.718,5.628-6,7.68c-5.133,3.209-9.33,6.665-10.32,13.68c5.297-1.47,10.072-3.058,16.8-2.64
		c17.18,1.067,26.902,12.043,37.68,20.88c11.516,9.442,22.89,16.443,36.38,22.276c-0.481-2.746-0.747-5.565-0.747-8.447
		c0-19.868,11.933-36.96,29.073-44.646c0.352-0.762,1.065-1.343,2.16-1.343c0.292,0,0.548,0.053,0.787,0.127
		c5.407-2.016,11.261-3.126,17.379-3.126c27.283,0,49.4,21.933,49.4,48.988c0,2.808-0.259,5.552-0.72,8.228
		c0.162-0.015,0.326-0.014,0.488,0.005c13.526-5.697,24.946-12.765,36.438-22.062c10.98-8.883,20.157-19.909,37.681-20.88
		c6.632-0.367,11.313,1.172,16.56,2.64c-0.096-4.384-2.483-6.477-4.319-9.12c-1.998-1.498-3.711-3.002-6.24-4.56
		c-3.077-1.894-6.42-2.892-5.761-7.92c0.468-3.563,3.794-7.291,6.48-10.08c2.933-3.045,5.601-5.441,8.64-7.92
		c5.898-4.811,12.331-8.861,17.761-13.44C327.896,227.249,329.322,226.841,328.461,226.457z"/>
	<path stroke="#000000" d="M161.181,179.417c0.368-2.512,1.665-4.095,4.8-3.84C165.857,178.332,164.34,179.695,161.181,179.417z"/>
	<path stroke="#000000" d="M122.061,310.697c-13.066-5.092-22.32-14.27-32.64-22.08c-10.28-7.781-20.921-15.857-36-18.72
		c-0.74-0.425,0.514-0.805,0.72-0.96c2.207-1.668,4.438-3.729,4.56-7.681c0.2-6.476-4.355-12.586-8.4-17.04
		c-4.402-4.847-9.872-8.614-13.92-11.52c4.068-2.583,7.354-7.605,7.92-13.68c1.085-11.651-6.382-22.009-13.2-26.64
		c5.022-2.147,8.93-5.533,9.6-11.52c1.256-11.231-5.366-20.297-6.48-29.76c-0.002-0.847,1.096,0.549,1.44,0.96
		c3.241,3.869,6.714,9.083,10.32,12.72c-0.478-14.858-0.866-31.858,2.88-42.48c1.789-5.073,4.163-9.199,6.96-13.68
		c2.898-4.642,3.635-9.86,4.8-15.84c0.189-0.876,0.7,0.456,0.72,0.48c0.826,0.979,1.542,2.4,3.6,2.4c2.083,0,2.751-1.658,4.08-3.36
		c7.246-9.279,16.008-19.998,22.56-28.8c11.799,1.622,18.717-7.668,24.96-13.68c0.204-0.044,0.227,0.094,0.24,0.24
		c-2.44,15.118,4.439,25.698,10.8,35.52c5.689,8.785,12.93,16.616,12,30.48c-0.599,8.93-5.662,14.446-11.76,19.68
		c-11.828,10.152-21.211,19.822-27.6,35.28c-3.105,7.512-5.422,15.953-5.04,26.16c0.717,19.14,10.576,31.216,21.12,41.76
		c10.772,10.773,22.158,18.738,35.52,27.12C135.358,274.393,123.525,287.361,122.061,310.697z"/>
	<path stroke="#000000" d="M299.181,219.017c0.571,6.131,3.417,10.73,7.921,13.44c-3.942,3.071-9.281,6.87-13.681,11.76
		c-4.336,4.82-10.965,12.651-7.92,20.4c0.944,2.402,3.288,3.861,4.8,5.28c-15.009,2.636-25.902,10.896-36.24,18.72
		c-10.322,7.813-19.563,16.989-32.64,22.08c-1.547-23.173-13.024-36.417-29.76-44.4c12.559-8.245,24.79-16.631,35.52-27.36
		c10.349-10.349,20.348-22.171,21.12-41.52c0.791-19.802-8.019-35.211-16.8-46.08c-4.202-5.202-10.171-10.733-15.84-15.6
		c-7.204-6.184-12.602-11.939-11.761-24.48c0.758-11.296,7.907-19.357,13.2-27.6c5.952-9.27,11.997-19.434,9.601-33.84
		c5.942,5.049,13.306,15.604,24.96,13.68c1.401,0.962,2.277,2.666,3.359,4.08c6.161,8.051,12.781,16.193,19.44,24.72
		c1.324,1.695,1.993,3.26,3.84,3.36c2.463,0.133,2.689-1.316,3.84-2.64c0.124-0.143,0.563-0.862,0.96-0.48
		c0.663,6.171,1.688,11.479,4.561,16.08c2.795,4.477,5.179,8.638,6.96,13.68c3.752,10.623,3.343,26.958,2.88,42.24
		c3.827-3.371,7.933-10.056,11.76-13.68c-2.224,11.816-12.437,30.585-1.199,39.36c1.162,0.908,2.494,1.391,4.319,1.92
		C305.816,197.671,297.992,206.243,299.181,219.017z"/>
	<path fill="#FFFFFF" stroke="#000000" d="M95.181,197.176c-0.382-10.208,1.935-18.648,5.04-26.16
		c6.389-15.458,15.772-25.127,27.6-35.28c6.098-5.234,11.161-10.75,11.76-19.68c0.93-13.864-6.311-21.695-12-30.48
		c-6.36-9.822-13.24-20.402-10.8-35.52c-0.014-0.146-0.036-0.284-0.24-0.24c-6.243,6.012-13.161,15.302-24.96,13.68
		c-6.552,8.802-15.314,19.521-22.56,28.8c-1.329,1.702-1.998,3.36-4.08,3.36c-2.058,0-2.773-1.421-3.6-2.4
		c-0.021-0.024-0.531-1.356-0.72-0.48c-1.165,5.979-1.902,11.198-4.8,15.84c-2.798,4.481-5.171,8.607-6.96,13.68
		c-3.746,10.622-3.358,27.622-2.88,42.48c-3.605-3.637-7.079-8.852-10.32-12.72c-0.344-0.411-1.442-1.807-1.44-0.96
		c1.114,9.463,7.736,18.529,6.48,29.76c-0.67,5.987-4.578,9.373-9.6,11.52c6.818,4.631,14.286,14.989,13.2,26.64
		c-0.566,6.075-3.852,11.097-7.92,13.68c4.048,2.905,9.519,6.673,13.92,11.52c4.044,4.454,8.6,10.564,8.4,17.04
		c-0.123,3.951-2.353,6.013-4.56,7.681c-0.207,0.155-1.46,0.535-0.72,0.96c15.079,2.862,25.72,10.938,36,18.72
		c10.32,7.811,19.574,16.988,32.64,22.08c1.464-23.336,13.297-36.304,29.76-44.641c-13.362-8.382-24.748-16.347-35.52-27.12
		C105.757,228.392,95.898,216.316,95.181,197.176z"/>
	<path fill="#FFFFFF" stroke="#000000" d="M312.381,192.136c-1.825-0.529-3.157-1.012-4.319-1.92
		c-11.237-8.775-1.024-27.544,1.199-39.36c-3.827,3.624-7.933,10.309-11.76,13.68c0.463-15.281,0.872-31.617-2.88-42.24
		c-1.781-5.042-4.165-9.203-6.96-13.68c-2.873-4.601-3.897-9.909-4.561-16.08c-0.397-0.382-0.836,0.337-0.96,0.48
		c-1.15,1.324-1.377,2.773-3.84,2.64c-1.847-0.1-2.516-1.665-3.84-3.36c-6.659-8.527-13.279-16.669-19.44-24.72
		c-1.082-1.414-1.958-3.118-3.359-4.08c-11.654,1.924-19.018-8.631-24.96-13.68c2.396,14.406-3.648,24.571-9.601,33.84
		c-5.293,8.243-12.442,16.304-13.2,27.6c-0.841,12.541,4.557,18.296,11.761,24.48c5.669,4.867,11.638,10.398,15.84,15.6
		c8.781,10.869,17.591,26.278,16.8,46.08c-0.772,19.349-10.771,31.171-21.12,41.52c-10.729,10.729-22.961,19.115-35.52,27.36
		c16.735,7.983,28.213,21.228,29.76,44.4c13.077-5.091,22.317-14.267,32.64-22.08c10.338-7.824,21.231-16.084,36.24-18.72
		c-1.512-1.419-3.855-2.878-4.8-5.28c-3.045-7.749,3.584-15.58,7.92-20.4c4.399-4.89,9.738-8.688,13.681-11.76
		c-4.504-2.71-7.35-7.309-7.921-13.44C297.992,206.243,305.816,197.671,312.381,192.136z"/>
	<path fill="#00FF00" stroke="#000000" d="M161.181,179.417c3.159,0.278,4.676-1.084,4.8-3.84
		C162.846,175.321,161.549,176.905,161.181,179.417z"/>
	<path fill-rule="evenodd" clip-rule="evenodd" fill="#1A1A1A" stroke="#000000" d="M178.461,164.776
		c-2.21-9.92-4.279-19.829-6.48-29.04c-2.576-10.782-4.539-21.596-15.12-25.68c-1.175,3.796-0.724,8.161,0.96,10.56
		c2.239,3.189,9.129,3.733,9.12,8.88c-2.507-1.271-5.249-3.343-7.68-4.8c-0.845-0.506-2.156-1.574-2.4-0.96
		c1.336,5.284,2.779,9.376,6,12.24c2.876,2.557,5.813,5.095,7.2,8.4c-2.254-0.485-3.459-3.234-5.28-3.36
		c-2.854,8.99,8.375,9.991,10.8,15.84c1.166,2.813,0.667,7.491-1.2,10.32c-0.591,0.301-1.194,0.49-1.8,0.625h6.513
		C178.858,166.858,178.673,165.726,178.461,164.776z"/>
</g>
</svg>
