<?xml version="1.0" encoding="utf-8"?>
<!-- Generator: Adobe Illustrator 14.0.0, SVG Export Plug-In . SVG Version: 6.00 Build 43363)  -->
<!DOCTYPE svg PUBLIC "-//W3C//DTD SVG 1.1//EN" "http://www.w3.org/Graphics/SVG/1.1/DTD/svg11.dtd">
<svg version="1.1" id="Layer_1" xmlns="http://www.w3.org/2000/svg" xmlns:xlink="http://www.w3.org/1999/xlink" x="0px" y="0px"
	 width="139px" height="277px" viewBox="0 0 139 277" enable-background="new 0 0 139 277" xml:space="preserve">
<path fill="#ED1C24" stroke="#000000" d="M76.068,159.361c-0.383-10.208,1.935-18.648,5.04-26.16
	c6.389-15.458,15.771-25.127,27.6-35.28c6.098-5.234,11.161-10.75,11.76-19.68c0.93-13.864-6.311-21.695-12-30.48
	c-6.359-9.822-13.24-20.402-10.8-35.52c-0.014-0.146-0.036-0.284-0.24-0.24c-6.243,6.012-13.161,15.302-24.96,13.68
	c-6.552,8.802-15.313,19.521-22.56,28.8c-1.329,1.702-1.998,3.36-4.08,3.36c-2.059,0-2.773-1.421-3.601-2.4
	c-0.021-0.024-0.53-1.356-0.72-0.48c-1.165,5.979-1.902,11.198-4.8,15.84c-2.798,4.481-5.171,8.607-6.96,13.68
	c-3.746,10.622-3.358,27.622-2.88,42.48c-3.605-3.637-7.079-8.852-10.32-12.72c-0.344-0.411-1.442-1.807-1.439-0.96
	c1.113,9.463,7.735,18.529,6.479,29.759c-0.67,5.987-4.578,9.373-9.6,11.521c6.817,4.631,14.286,14.989,13.199,26.64
	c-0.565,6.075-3.852,11.098-7.92,13.68c4.049,2.906,9.52,6.674,13.92,11.521c4.045,4.454,8.601,10.563,8.4,17.04
	c-0.123,3.951-2.353,6.014-4.56,7.682c-0.207,0.154-1.46,0.535-0.721,0.959c15.079,2.862,25.721,10.938,36,18.721
	c10.32,7.811,19.574,16.988,32.641,22.08c1.464-23.336,13.297-36.305,29.76-44.641c-13.362-8.383-24.748-16.348-35.521-27.121
	C86.644,190.578,76.785,178.502,76.068,159.361z"/>
</svg>
