<?xml version="1.0" encoding="utf-8"?>
<!-- Generator: Adobe Illustrator 14.0.0, SVG Export Plug-In . SVG Version: 6.00 Build 43363)  -->
<!DOCTYPE svg PUBLIC "-//W3C//DTD SVG 1.1//EN" "http://www.w3.org/Graphics/SVG/1.1/DTD/svg11.dtd">
<svg version="1.1" id="Layer_1" xmlns="http://www.w3.org/2000/svg" xmlns:xlink="http://www.w3.org/1999/xlink" x="0px" y="0px"
	 width="62.5px" height="103.846px" viewBox="0 0 62.5 103.846" enable-background="new 0 0 62.5 103.846" xml:space="preserve">
<g>
	<path fill-rule="evenodd" clip-rule="evenodd" d="M30.974,7.786c-1.937,3.229-3.262,6.797-4.08,10.8
		c-0.86,4.206-0.905,8.685-2.16,12.72c-2.36,7.585-7.167,12.954-12.96,16.801c-6.937-7.88-7.5-24.662-0.721-31.921
		C15.65,11.264,22.354,8.184,30.974,7.786z"/>
	<path fill-rule="evenodd" clip-rule="evenodd" d="M54.253,16.426c-1.947,4.612-4.638,8.482-8.16,11.521
		c-6.598-0.744-13.563-0.032-18,2.159c-0.027-4.509,1.176-9.863,2.16-14.159C37.492,10.898,45.794,17.223,54.253,16.426z"/>
	<path fill-rule="evenodd" clip-rule="evenodd" d="M58.333,35.626c-1.502,3.538-4.113,5.966-6.72,8.4
		c-3.814-2.725-8.701-6.843-15.12-7.44c-4.631-0.432-8.891,0.658-12.24,2.64c0.228-1.694,1.983-3.936,2.641-6
		C35.878,28.399,51.509,29.822,58.333,35.626z"/>
	<path fill-rule="evenodd" clip-rule="evenodd" d="M56.173,53.626c-4.724,6.084-10.684,14.283-21.12,14.64
		c-11.661,0.399-14.329-8.5-22.8-12c0-1.68,0-3.359,0-5.04c8.785-3.452,10.806-13.229,24-12
		C45.563,40.094,51.394,47.607,56.173,53.626z"/>
	<path fill-rule="evenodd" clip-rule="evenodd" d="M11.773,59.386c5.678,3.104,10.858,10.082,12.96,17.04
		c2.306,7.634,1.634,16.851,6.24,23.28C18.52,98.89,7.224,92.403,6.253,79.066C5.753,72.187,7.771,63.444,11.773,59.386z"/>
	<path fill-rule="evenodd" clip-rule="evenodd" d="M58.333,71.386c-6.082,6.463-22.979,7.5-31.68,2.641
		c-0.649-2.07-1.473-3.968-2.641-5.521c1.586,0.117,3.021,1.222,4.801,1.68c9.026,2.326,17.803-2.054,22.319-6.72
		C54.085,64.97,56.482,68.465,58.333,71.386z"/>
	<path fill-rule="evenodd" clip-rule="evenodd" d="M27.613,77.626c-0.044-0.204,0.094-0.227,0.24-0.24
		c4.664,1.788,11.768,3.246,18,1.92c3.663,2.977,6.313,6.967,8.399,11.521c-7.974-0.748-15.899,5.656-24,0.72
		C28.978,87.302,28.761,81.999,27.613,77.626z"/>
</g>
</svg>
