<?xml version="1.0" encoding="utf-8"?>
<!-- Generator: Adobe Illustrator 14.0.0, SVG Export Plug-In . SVG Version: 6.00 Build 43363)  -->
<!DOCTYPE svg PUBLIC "-//W3C//DTD SVG 1.1//EN" "http://www.w3.org/Graphics/SVG/1.1/DTD/svg11.dtd">
<svg version="1.1" id="Layer_1" xmlns="http://www.w3.org/2000/svg" xmlns:xlink="http://www.w3.org/1999/xlink" x="0px" y="0px"
	 width="78px" height="85px" viewBox="0 0 78 85" enable-background="new 0 0 78 85" xml:space="preserve">
<path fill-rule="evenodd" clip-rule="evenodd" d="M37.361,80.24c-9.751-1.056-17.316-5.598-22.561-11.28
	C9.188,62.878,5.441,54.724,5.441,44.48c0-20.038,13.99-34.435,32.879-35.761c14.27-1.001,27.314,8.629,31.921,17.521
	c3.438,6.639,4.564,18.835,1.199,27.6c-1.38,3.596-4.371,9.145-7.92,10.801c-2.127,0.992-4.644,1.163-6.72,1.68
	c-5.351,1.331-10.003,3.125-13.44,6.48C41.287,74.825,39.918,77.441,37.361,80.24z"/>
</svg>
