<?xml version="1.0" encoding="utf-8"?>
<!-- Generator: Adobe Illustrator 14.0.0, SVG Export Plug-In . SVG Version: 6.00 Build 43363)  -->
<!DOCTYPE svg PUBLIC "-//W3C//DTD SVG 1.1//EN" "http://www.w3.org/Graphics/SVG/1.1/DTD/svg11.dtd">
<svg version="1.1" id="Layer_1" xmlns="http://www.w3.org/2000/svg" xmlns:xlink="http://www.w3.org/1999/xlink" x="0px" y="0px"
	 width="125px" height="119px" viewBox="0 0 125 119" enable-background="new 0 0 125 119" xml:space="preserve">
<path fill-rule="evenodd" clip-rule="evenodd" fill="#CCCCCC" stroke="#000000" d="M113.327,59.482
	c0-27.056-22.117-48.988-49.4-48.988c-27.282,0-49.399,21.933-49.399,48.988c0,2.882,0.266,5.701,0.747,8.447
	c0.033,0.015,0.065,0.029,0.1,0.044c0.061,0.71,0.181,1.402,0.321,2.087c0.098,0.443,0.197,0.887,0.309,1.325
	c0.616,2.307,1.504,4.446,2.094,6.38c2.092,5.152,5.04,9.869,8.673,13.979c3.679,3.966,7.673,7.357,12.262,10.043
	c0.172,0.101,0.345,0.198,0.519,0.297c0.439,0.249,0.884,0.492,1.334,0.729c0.287,0.15,0.579,0.297,0.87,0.442
	c0.416,0.207,0.834,0.413,1.26,0.609c0.224,0.104,0.45,0.202,0.676,0.303c4.124,1.825,8.709,3.149,13.924,3.886
	c1.882,0.265,3.838,0.205,5.941,0.406c0.124,0.001,0.247,0.01,0.371,0.01C91.21,108.47,113.327,86.537,113.327,59.482z
	 M49.934,101.573c-7.784-2.88-14.943-8.741-19.92-15.359c-5.273-7.017-8.186-16.71-7.439-27.841
	c0.73-10.888,5.267-19.633,11.52-25.92c6.178-6.21,14.975-11.229,25.44-12c12.514-0.92,22.874,3.763,30,10.08
	c7.646,6.778,12.652,15.23,12.72,27.84c0.056,10.274-2.671,17.842-7.439,23.761c-1.544,1.916-3.41,4.416-5.28,5.279
	c-2.014,0.93-5.357,1.344-7.68,1.92c-2.602,0.646-5.048,1.102-7.2,2.16c-5.146,2.533-7.14,6.602-10.8,12
	C59.041,104.06,53.919,103.048,49.934,101.573z"/>
</svg>
