<?xml version="1.0" encoding="utf-8"?>
<!-- Generator: Adobe Illustrator 14.0.0, SVG Export Plug-In . SVG Version: 6.00 Build 43363)  -->
<!DOCTYPE svg PUBLIC "-//W3C//DTD SVG 1.1//EN" "http://www.w3.org/Graphics/SVG/1.1/DTD/svg11.dtd">
<svg version="1.1" id="Layer_1" xmlns="http://www.w3.org/2000/svg" xmlns:xlink="http://www.w3.org/1999/xlink" x="0px" y="0px"
	 width="138px" height="277px" viewBox="0 0 138 277" enable-background="new 0 0 138 277" xml:space="preserve">
<path fill="#FF7824" stroke="#000000" d="M130.268,150.322c-1.824-0.529-3.156-1.012-4.317-1.92
	c-11.238-8.775-1.025-27.544,1.198-39.359c-3.826,3.623-7.934,10.309-11.76,13.68c0,0,0,0,0-0.001l0,0
	c0.145-4.775,0.283-9.653,0.293-14.429c0.02-10.504-0.595-20.507-3.174-27.811c-1.781-5.042-4.165-9.203-6.96-13.68
	c-2.873-4.601-3.897-9.909-4.562-16.08c-0.396-0.382-0.836,0.337-0.959,0.48c-1.151,1.324-1.379,2.773-3.842,2.64
	c-1.847-0.1-2.516-1.665-3.84-3.36c-6.658-8.527-13.277-16.669-19.438-24.72c-1.082-1.414-1.958-3.118-3.359-4.08
	c-11.654,1.924-19.018-8.631-24.96-13.68c2.184,13.127-2.643,22.729-8.021,31.344c-0.524,0.84-1.052,1.673-1.58,2.497
	c-5.293,8.243-12.442,16.304-13.2,27.6c-0.053,0.784-0.081,1.541-0.086,2.273c-0.073,10.988,5.093,16.408,11.847,22.206
	c5.669,4.867,11.638,10.397,15.84,15.6c8.232,10.189,16.49,24.37,16.838,42.419c0.023,1.203,0.012,2.425-0.038,3.662
	c-0.771,19.349-10.771,31.17-21.119,41.521c-10.73,10.729-22.961,19.114-35.52,27.358c4.706,2.246,8.997,4.906,12.769,8.088
	c6.534,5.514,11.501,12.594,14.373,21.77c0.259,0.827,0.507,1.664,0.73,2.525c0.007,0.025,0.013,0.052,0.019,0.076
	c0.946,3.656,1.58,7.627,1.868,11.94c13.077-5.091,22.317-14.267,32.641-22.08c10.338-7.823,21.23-16.084,36.238-18.72
	c-1.512-1.418-3.854-2.877-4.799-5.279c-0.572-1.453-0.803-2.908-0.771-4.348c0.132-6.232,5.168-12.137,8.691-16.055
	c4.398-4.89,9.736-8.688,13.68-11.758c-4.502-2.711-7.35-7.31-7.92-13.439c-0.073-0.799-0.112-1.581-0.119-2.348
	C116.852,163.37,124.111,155.512,130.268,150.322z"/>
</svg>
