<?xml version="1.0" encoding="utf-8"?>
<!-- Generator: Adobe Illustrator 14.0.0, SVG Export Plug-In . SVG Version: 6.00 Build 43363)  -->
<!DOCTYPE svg PUBLIC "-//W3C//DTD SVG 1.1//EN" "http://www.w3.org/Graphics/SVG/1.1/DTD/svg11.dtd">
<svg version="1.1" id="Layer_1" xmlns="http://www.w3.org/2000/svg" xmlns:xlink="http://www.w3.org/1999/xlink" x="0px" y="0px"
	 width="515px" height="450px" viewBox="0 0 515 450" enable-background="new 0 0 515 450" xml:space="preserve">
<path fill-rule="evenodd" clip-rule="evenodd" d="M424.18,423.4c24.16,0,48.32,0,72.48,0c0,5.199,0,10.399,0,15.6
	c-158.084-0.16-316.792,0.32-474.482-0.24c0.156-5.043-0.315-10.715,0.24-15.359c24.08,0,48.16,0,72.24,0
	c0.789,0.175,0.368-0.478,0-0.48c-29.917-29.49-52.862-65.156-65.04-111.84c-6.21-23.81-8.811-53.615-6.24-80.4
	c5.118-53.33,24.395-93.489,50.64-126.24c26.424-32.975,59.397-58.162,102.48-74.4c18.609-7.014,39.03-12.323,63.12-14.16
	c10.516-0.802,21.515-1.101,33.359-0.479c20.945,1.098,41.194,5.109,57.84,10.56c23.574,7.719,43.547,17.234,61.441,29.521
	c36.813,25.274,64.15,57.521,83.279,98.64c9.51,20.441,16.836,44.368,19.68,71.28c2.951,27.925,0.963,57.55-5.039,82.561
	C478.551,356.422,453.891,393.813,424.18,423.4z M467.859,320.2c7.127-22.162,11.873-49.023,10.561-76.801
	c-1.301-27.535-6.918-51.137-15.359-72.24c-16.475-41.173-42.926-73.028-77.281-97.68c-16.775-12.038-36.186-21.93-58.08-29.28
	c-24.333-8.169-56.189-12.969-87.601-10.08c-9.742,0.896-18.747,2.37-27.6,4.32c-34.495,7.597-62.862,21.701-86.88,40.56
	c-31.94,25.08-56.925,57.164-71.76,98.16c-7.646,21.127-13.2,44.672-13.2,71.76c0,13.532,0.763,27.225,2.88,39.6
	c2.087,12.2,5.116,23.192,8.64,33.84c13.034,39.382,35.841,70.876,64.08,95.28c1.951,1.686,3.727,3.923,5.76,5.04
	c1.134,0.623,1.401,0.617,3.12,0.721c11.071,0.666,22.591,0,33.84,0c79.631-0.001,157.703,0,237.361,0
	C427.838,397.07,453.793,363.941,467.859,320.2z"/>
<g>
	<path fill-rule="evenodd" clip-rule="evenodd" d="M485.86,383.5c0,0.88,0,1.76,0,2.64c-1.601,0-3.2,0-4.801,0
		c-0.56,4.001-0.08,9.04-0.24,13.44c-1.119,0-2.239,0-3.359,0c0-4.48,0-8.96,0-13.44c-1.68,0-3.36,0-5.04,0c0-0.88,0-1.76,0-2.64
		C476.899,383.5,481.38,383.5,485.86,383.5z"/>
	<path fill-rule="evenodd" clip-rule="evenodd" d="M492.82,383.5c1.31,3.73,2.642,7.438,3.84,11.28
		c1.142-3.898,2.488-7.592,3.84-11.28c1.6,0,3.2,0,4.8,0c0.179,5.581,0.694,10.825,1.2,16.08c-1.12,0-2.24,0-3.36,0
		c-0.249-4.631-0.783-8.977-0.72-13.92c-1.392,4.608-2.825,9.175-4.32,13.68c-1.12,0-2.239,0-3.359,0
		c-1.384-4.297-2.953-8.407-3.841-13.2c-0.592,4.208-0.676,8.924-0.96,13.44c-1.04,0-2.08,0-3.12,0
		c0.208-5.552,0.647-10.873,1.2-16.08C489.62,383.5,491.22,383.5,492.82,383.5z"/>
</g>
</svg>
