<?xml version="1.0" encoding="utf-8"?>
<!-- Generator: Adobe Illustrator 14.0.0, SVG Export Plug-In . SVG Version: 6.00 Build 43363)  -->
<!DOCTYPE svg PUBLIC "-//W3C//DTD SVG 1.1//EN" "http://www.w3.org/Graphics/SVG/1.1/DTD/svg11.dtd">
<svg version="1.1" id="Layer_1" xmlns="http://www.w3.org/2000/svg" xmlns:xlink="http://www.w3.org/1999/xlink" x="0px" y="0px"
	 width="574px" height="83px" viewBox="0 0 574 83" enable-background="new 0 0 574 83" xml:space="preserve">
<path fill-rule="evenodd" clip-rule="evenodd" d="M75.08,14.28c4.72,0,9.44,0,14.16,0c6.04,13.48,12.112,26.928,18.24,40.32
	c6.596-13.164,12.385-27.136,18.96-40.32c4.8,0,9.6,0,14.4,0c0,0.72,0,1.44,0,2.16c-0.93,1.294-4.016,0.442-5.76,1.439
	c-2.129,1.219-1.808,6.674-1.68,11.28c0.221,7.94,0.5,15.366,0.72,23.28c0.119,4.266-0.436,9.821,1.2,11.76
	c1.253,1.486,4.809,1.231,6.48,1.92c0,0.641,0,1.28,0,1.92c-0.511,0.909-1.792,0.463-2.64,0.48c-6.11,0.129-13.879,0.099-19.92-0.24
	c0-0.64,0-1.28,0-1.92c0.439-0.883,1.842-0.555,2.64-0.72c1.341-0.277,2.881-0.61,3.6-1.681c1.243-1.851,0.72-6.359,0.72-9.84
	c0-10.297-0.174-22.159-0.24-31.2c-5.988,12.723-12.114,26.485-18,40.08c-0.804,1.856-1.555,5.098-3.36,4.801
	c-1.323-0.219-2.008-3.758-2.64-5.28c-5.178-12.467-11.187-25.763-16.08-38.4c-0.715,7.978-1.68,20.302-1.68,29.521
	c0,3.646-0.56,7.854,0.72,9.84c1.394,2.162,4.65,1.706,6.96,2.64c0,0.801,0,1.601,0,2.4c-6.56,0-13.12,0-19.68,0
	c0-0.72,0-1.44,0-2.16c1.073-1.23,3.296-0.757,4.8-1.68c2.542-1.561,2.874-7.175,3.36-12c0.399-3.966,0.474-7.912,0.72-11.761
	c0.558-8.718,2.352-17.316,0-22.56c-1.694-0.865-3.918-1.201-6.24-1.44C74.992,16.112,74.531,14.691,75.08,14.28z"/>
<path fill-rule="evenodd" clip-rule="evenodd" d="M148.28,14.28c12.32,0,24.64,0,36.96,0c0.242,1.958,0.33,4.253,0.48,6.48
	c0.141,2.087,0.658,4.435-0.24,6c-0.422,0.138-1.41-0.29-1.44,0.239c-1.301-0.833-1.182-3.163-1.92-4.8
	c-0.587-1.301-1.597-3.152-2.88-3.84c-1.837-0.984-5.176-0.857-7.92-0.96c-2.766-0.104-5.722-0.159-8.16,0.479
	c-0.553,6.487-0.085,13.995-0.24,20.881c4.734-0.6,10.425,1.103,13.68-0.721c2.111-1.182,1.659-3.258,2.88-5.52
	c0.72,0,1.44,0,2.16,0c0.398,4.808,0.398,11.272,0,16.08c-3.712,1.009-2.113-2.017-3.6-4.32c-2.239-3.468-8.896-1.299-15.12-1.92
	c0,3.46,0,7.019,0,10.8c0,4.142-0.716,9.645,1.92,11.28c1.426,0.885,4.933,0.96,7.68,0.96c6.714,0,10.31-1.183,12.72-5.28
	c0.508-0.862,0.785-2.007,1.2-2.88c0.398-0.837,0.775-1.833,1.44-2.399c0.988-0.188,1.231,0.368,2.16,0.239
	c-0.256,4.152-1.897,8.978-2.64,13.44c-13.44-0.16-27.52,0.32-40.56-0.24c0-0.64,0-1.28,0-1.92c0.821-0.933,2.642-0.621,4.08-0.96
	c1.355-0.319,2.8-0.735,3.36-1.68c1.148-1.936,0.72-7.603,0.72-11.521c0-8.02,0-15.491,0-24c0-3.944,0.142-9.048-1.68-10.32
	c-1.286-0.897-4.453-0.63-5.52-0.96C147.95,16.029,147.41,14.45,148.28,14.28z"/>
<path fill-rule="evenodd" clip-rule="evenodd" d="M192.681,14.28c3.404,0.77,8.079-1.01,11.76,0c1.304,0.357,3.134,3.063,4.56,4.8
	c9.576,11.663,20.321,24.223,29.76,35.28c-0.066-7.663,0.193-18.125-0.24-26.4c-0.332-6.323,0.203-9.646-5.279-10.8
	c-1.84-0.387-4.165,0.256-3.121-2.16c0.456-1.054,2.402-0.72,4.561-0.72c4.967,0,10.619-0.191,14.88,0.24c0,0.64,0,1.28,0,1.92
	c-0.495,0.981-1.994,0.474-2.88,0.72c-0.83,0.231-1.788,0.651-2.4,1.2c-1.958,1.757-1.878,7.297-1.92,11.28
	c-0.132,12.591,0.101,27.537,0,38.88c-0.717-0.149-1.592,0.196-2.4,0c-1.379-0.336-3.172-3.593-4.56-5.28
	c-10.086-12.269-20.769-25.327-30.72-37.2c0.006,8.22-0.085,20.313,0.24,28.801c0.127,3.311,0.14,6.517,1.44,8.159
	c1.651,2.086,4.285,1.434,6.721,2.4c0,0.561,0,1.12,0,1.68c-0.277,0.905-1.514,0.462-2.16,0.48c-5.23,0.149-12.125,0.083-17.28-0.24
	c0-0.56,0-1.12,0-1.68c0.729-1.02,3.457-0.822,4.8-1.681c2.497-1.594,2.542-6.33,2.64-11.279c0.13-6.577,0.24-13.948,0.24-20.88
	c0-3.671,0.187-7.57-0.48-9.841c-0.967-3.295-4.636-4.902-8.4-5.04C192.592,16.112,192.131,14.691,192.681,14.28z"/>
<path fill-rule="evenodd" clip-rule="evenodd" d="M293.961,14.28c0.759,0.512,0.66,2.208,0.72,3.36
	c0.173,3.353,0.263,7.791,0.72,11.279c-0.965-0.165-1.37,0.23-2.16,0.24c-1.042-0.479-0.696-1.761-0.96-2.64
	c-0.583-1.95-1.959-5.8-3.84-6.72c-2.484-1.216-5.881-0.035-9.84-0.48c-0.431,9.289-0.24,22.429-0.24,33.601
	c0,3.812-0.633,8.345,0.48,10.56c1.389,2.763,5.375,1.75,7.68,2.88c0,0.561,0,1.12,0,1.68c-0.488,0.908-1.834,0.461-2.64,0.48
	c-6.509,0.154-14.683,0.08-21.12-0.24c-1.186-3.939,3.626-1.692,6.24-3.359c0.887-0.566,1.494-2.111,1.68-3.601
	c0.705-5.662,0-13.392,0-20.88c0-7.334,0-14.719,0-20.88c-3.566-0.162-7.395-0.737-9.84,0.24c-3.109,1.241-3.369,6.125-4.801,9.359
	c-0.799,0-1.6,0-2.399,0c0.405-4.954,0.437-10.283,1.2-14.88c1.781-0.374,2.344,1.769,4.08,2.16c3.572,0.806,9.596,0,15.359,0
	c5.638,0,11.624,0.7,15.36,0C291.457,16.1,292.55,14.046,293.961,14.28z"/>
<path fill-rule="evenodd" clip-rule="evenodd" d="M339.081,33.96c-0.323-0.557-0.397-1.362-0.721-1.92
	c2.411-2.303,7.109-2.95,6.24-8.16c-0.172-1.027-1.268-2.679-2.399-3.359c-1.739-1.046-3.411-0.636-3.841-1.92
	c-0.685-2.048,1.537-4.176,3.601-4.32c5.457-0.383,9.617,6.526,7.68,12C348.206,30.334,343.922,32.736,339.081,33.96z"/>
<path fill-rule="evenodd" clip-rule="evenodd" d="M382.282,16.2c0.246,3.755,1.457,7.821,1.199,11.28
	c-3.043,1.651-3.248-2.938-4.08-4.561c-0.932-1.813-2.896-4.294-4.801-5.04c-6.064-2.375-11.465,1.532-12.24,5.761
	c-0.324,1.774-0.555,6.145,0,7.68c0.527,1.453,3.359,2.798,5.521,3.84c7.6,3.663,18.117,7.4,18.24,17.761
	c0.156,13.421-17.252,19.67-30.001,12.72c-0.546-2.88-1.553-6.315-1.92-9.84c-0.103-0.977-0.507-2.411,0.239-3.12
	c2.615-1.863,3.115,3.12,3.84,4.56c2.248,4.462,5.313,8.047,11.041,8.16c6.805,0.135,11.219-5.574,8.881-12.479
	c-2.703-7.978-16.949-9.381-21.361-17.761c-2.53-4.806-1.117-11.845,1.439-15.12C362.614,14.492,373.599,12.746,382.282,16.2z"/>
<path fill-rule="evenodd" clip-rule="evenodd" d="M428.362,14.521c0,0.64,0,1.28,0,1.92c-0.594,0.988-1.857,0.562-2.641,0.72
	c-1.41,0.285-3.135,0.677-3.84,1.92c-1.119,1.972-0.721,6.272-0.721,9.84c0,3.773,0,7.525,0,10.561
	c5.076-1.681,8.238-5.997,11.52-9.601c3.246-3.564,7.449-6.733,9.361-11.52c-0.664-1.497-3.59-0.731-4.801-1.68
	c0-0.721,0-1.44,0-2.16c6.242-0.558,13.518-0.082,20.16-0.24c0,0.88,0,1.76,0,2.64c-7.277,0.272-11.723,4.283-15.6,8.16
	c-3.961,3.96-7.846,7.995-11.76,12c5.291,6.923,11.449,14.373,17.52,21.36c3.137,3.611,5.92,6.608,11.279,7.68
	c0,0.801,0,1.601,0,2.4c-4.4,0-8.799,0-13.199,0c-6.135-6.446-11.707-14.05-17.52-21.12c-1.822-2.216-3.662-5.097-6.721-5.52
	c-0.428,2.917-0.24,7.247-0.24,11.279c0,4.11-0.391,8.43,0.961,10.561c1.43,2.257,3.85,1.515,6.719,2.399c0,0.801,0,1.601,0,2.4
	c-7.439,0-14.879,0-22.32,0c0-0.72,0-1.44,0-2.16c0.281-0.862,1.617-0.508,2.641-0.72c2.539-0.525,3.918-1.083,4.32-4.32
	c0.672-5.39,0-12.129,0-19.92c0-7.729,0.625-14.903,0-19.92c-0.471-3.779-3.217-4.421-7.199-4.561
	c0.148-0.891-0.391-2.47,0.479-2.64C413.884,14.438,421.64,13.963,428.362,14.521z"/>
<path fill-rule="evenodd" clip-rule="evenodd" d="M464.601,14.28c12.32,0,24.641,0,36.961,0c0.354,3.809,0.82,8.779,0.721,12.24
	c-0.697,0.263-1.703,0.217-2.4,0.479c-1.412-3.243-1.219-7.042-4.32-8.64c-3.637-1.873-11.322-0.777-16.08-0.48
	c-0.553,6.408-0.086,13.835-0.24,20.641c4.584-0.201,11.463,1.568,14.4-0.96c1.572-1.354,0.992-3.06,2.16-5.04
	c0.719,0,1.439,0,2.16,0c0.555,4.884,0.082,10.797,0.24,16.08c-4.102,1.401-2.432-3.174-4.32-5.04
	c-2.932-2.896-8.721-0.294-14.4-1.2c0.719,5.58-2.547,19.273,1.68,22.08c1.311,0.87,5.377,0.953,7.68,0.96
	c6.172,0.018,9.898-0.86,12.24-4.56c0.709-1.119,1.227-2.814,1.92-4.08c0.752-1.371,1.258-2.574,3.6-1.681
	c-0.791,4.647-1.92,8.96-2.879,13.44c-13.439-0.16-27.52,0.32-40.561-0.24c0-0.64,0-1.28,0-1.92c0.617-0.841,2.654-0.615,4.08-0.96
	c4.768-1.153,4.08-4.606,4.08-11.76c0-9.58,0.793-23.754,0-31.681c-0.172-1.714-0.674-3.409-1.68-4.08
	c-1.303-0.867-4.684-0.52-5.52-1.199C464.249,15.849,463.765,14.404,464.601,14.28z"/>
<path fill-rule="evenodd" clip-rule="evenodd" d="M527.241,14.521c1,3.96-3.83,2.09-5.039,3.84c-0.008,2.328,1.412,4.22,2.398,6
	c2.953,5.32,5.93,10.485,8.881,16.08c1.432-1.088,2.107-3.142,3.119-5.04c1.809-3.387,3.498-6.469,5.521-10.56
	c0.803-1.624,2.492-4.372,2.16-5.761c-0.525-2.188-3.781-1.606-5.76-2.16c0-0.88,0-1.76,0-2.64c6.238,0,12.479,0,18.719,0
	c0,0.88,0,1.76,0,2.64c-5.611,0.061-7.908,3.27-10.561,7.44c-2.543,4-5.057,8.353-7.439,12.72c-1.313,2.408-3.295,5.268-3.6,7.44
	c-0.451,3.227-0.498,13.266,0,16.8c0.557,3.962,3.498,4.421,8.16,4.561c0,0.88,0,1.76,0,2.64c-8.08,0-16.16,0-24.24,0
	c0-0.88,0-1.76,0-2.64c4.908-0.216,7.678-0.428,8.16-5.28c0.391-3.922,0.379-12.35-0.24-15.12c-0.516-2.312-2.191-4.912-3.6-7.44
	c-2.543-4.566-5.387-9.197-8.16-13.92c-2.227-3.792-3.842-7.12-9.121-7.2c0.15-0.891-0.389-2.47,0.48-2.64
	C513.724,14.438,520.999,13.963,527.241,14.521z"/>
<path fill-rule="evenodd" clip-rule="evenodd" d="M68.36,66.12c0,0.801,0,1.601,0,2.4c-6.88,0-13.76,0-20.64,0c0-0.72,0-1.44,0-2.16
	c0.489-0.874,1.876-0.592,2.88-0.96c0.893-0.327,1.813-0.587,2.16-1.44c-0.847-5.473-3.294-9.346-4.56-14.399c-5.6,0-11.2,0-16.8,0
	c-0.903,1.435-1.659,4.159-2.64,6.96c-0.85,2.427-2.309,5.505-1.68,7.2c0.679,1.829,2.946,1.94,5.76,2.16c0,0.88,0,1.76,0,2.64
	c-6,0-12,0-18,0c0-0.88,0-1.76,0-2.64c8.003,0.071,9.134-8.486,11.52-14.641C30.774,39.856,36.773,25.637,41,15
	c1.106,0.27,2.178-1.229,2.88,0c1.687,2.951,3.084,8.601,4.32,12c3.111,8.555,6.334,17.093,9.36,25.44
	c1.194,3.293,2.769,9.971,5.28,12C64.424,65.72,66.583,65.488,68.36,66.12z M32.6,45.721c4.644,0.155,9.915-0.314,14.16,0.239
	c-2.254-6.785-4.433-13.647-6.96-20.159C37.462,32.503,34.847,38.928,32.6,45.721z"/>
<path fill-rule="evenodd" clip-rule="evenodd" d="M320.841,14.521c1.696,1.518,1.858,4.093,2.64,6.24
	c4.554,12.52,9.021,26.053,14.4,38.88c1.595,3.803,2.809,6.305,7.92,6.24c0,0.88,0,1.76,0,2.64c-6.88,0-13.76,0-20.64,0
	c0-0.8,0-1.6,0-2.4c1.997-0.787,4.298-0.335,5.039-1.92c0.707-1.509-1.063-5.03-1.92-7.439c-1.027-2.896-2.012-5.511-2.64-7.2
	c-5.52,0-11.04,0-16.56,0c-1.072,1.353-1.68,4.004-2.641,6.72c-0.852,2.407-2.372,5.411-1.92,7.2c0.57,2.255,3.48,1.901,6,2.64
	c0,0.801,0,1.601,0,2.4c-6,0-12,0-18,0c0-0.72,0-1.44,0-2.16c0.836-0.882,2.531-0.776,3.84-1.2c3.363-1.088,5.572-8.187,6.96-11.76
	c4.939-12.717,10.457-26.912,15.36-38.4C319.688,15.127,320.021,14.581,320.841,14.521z M310.28,45.721
	c4.641-0.16,9.92,0.319,14.16-0.24c-2.605-6.194-4.349-13.251-6.96-19.44C314.919,32.439,312.486,38.966,310.28,45.721z"/>
</svg>
