<?xml version="1.0" encoding="utf-8"?>
<!-- Generator: Adobe Illustrator 14.0.0, SVG Export Plug-In . SVG Version: 6.00 Build 43363)  -->
<!DOCTYPE svg PUBLIC "-//W3C//DTD SVG 1.1//EN" "http://www.w3.org/Graphics/SVG/1.1/DTD/svg11.dtd">
<svg version="1.1" id="Layer_1" xmlns="http://www.w3.org/2000/svg" xmlns:xlink="http://www.w3.org/1999/xlink" x="0px" y="0px"
	 width="569px" height="512px" viewBox="0 0 569 512" enable-background="new 0 0 569 512" xml:space="preserve">
<path fill="#FFFFFF" d="M422.757,417.455c-77.89,0.003-158.605-0.003-237.36,0c-11.249,0.001-22.372,0.805-33.12,0
	c-1.195-0.089-2.142,0.068-3.12-0.239c-1.99-0.628-3.812-3.257-5.76-5.04c-5.567-5.097-11.735-10.188-16.56-15.359
	c-21.055-22.572-37.191-47.5-48-80.16c-3.53-10.665-6.776-21.797-8.88-33.84c-2.168-12.412-2.88-26.078-2.88-39.84
	c0-27.817,5.813-50.825,13.44-71.76c15.127-41.52,39.698-73.637,72.24-98.64c28.287-21.733,62.265-37.878,106.08-43.44
	c3.125-0.396,6.337-0.688,9.6-0.96c31.297-2.606,63.006,2.659,86.879,10.56c21.787,7.211,41.123,17.541,57.841,29.52
	c33.958,24.333,60.438,56.894,76.56,97.92c8.356,21.268,14.021,44.72,15.12,72.241c1.66,41.533-9.354,78.623-23.521,106.8
	C466.77,374.148,446.523,397.586,422.757,417.455z M332.037,111.695c-5.641,8.421-12.502,16.752-11.521,30.24
	c0.61,8.381,5.061,13.955,11.28,19.44c5.397,4.759,11.672,10.185,15.84,15.12c8.826,10.45,17.563,25.515,17.521,44.4
	c-0.044,19.705-10.06,32.818-20.882,43.439c-9.578,9.402-20.614,17.07-31.68,24.48c-1.584,1.061-3.27,2.174-4.56,3.6
	c17.224,7.816,28.649,21.43,30.239,44.88c26.699-10.421,38.871-35.367,70.319-41.04c-3.09-3.232-7.119-6.203-5.76-12.479
	c2.367-10.93,15.749-19.701,22.56-25.68c-4.842-2.397-7.958-7.515-8.398-13.681c-0.553-7.711,1.789-12.676,5.04-17.281
	c2.714-3.846,5.992-6.867,8.64-9.6c-18.264-3.659-5.615-29.551-3.359-42c-4.347,2.774-7.805,9.795-11.761,12.96
	c0.054-12.916,0.622-23.752-1.199-33.6c-0.918-4.967-2.569-9.001-4.561-12.96c-1.98-3.941-4.649-7.547-6.24-11.52
	c-1.51-3.774-1.965-8.635-2.88-12.72c-2.264-0.14-2.321,3.289-5.039,3.12c-1.646-0.103-2.369-1.993-3.601-3.6
	c-3.192-4.165-6.974-8.662-9.841-12.24c-4.862-6.068-8.948-11.63-12.959-16.32c-13.905,1.417-18.325-8.709-25.922-14.4
	c-0.146,0.014-0.283,0.036-0.238,0.24C346.572,90.521,338.676,101.781,332.037,111.695z M201.237,88.896
	c-6.493,8.781-15.404,19.259-22.56,28.56c-1.319,1.715-2.047,3.533-3.84,3.6c-2.611,0.098-2.752-2.721-4.56-3.12
	c-1.574,5.78-2.168,10.859-4.8,15.6c-2.515,4.53-5.119,8.777-6.96,13.68c-3.968,10.563-3.986,26.964-3.36,42
	c-3.054-2.924-5.554-7.12-8.16-10.32c-0.81-0.994-1.842-2.714-3.36-2.4c0.082,8.523,6.508,17.799,6.48,27.6
	c-0.022,7.938-4.529,11.949-10.32,14.4c8.636,4.872,18.611,21.399,11.52,34.08c-1.499,2.68-3.959,4.355-6,6.48
	c7.542,5.273,21.591,15.063,22.56,26.639c0.342,4.089-1.302,6.339-3.12,7.921c-0.72,0.627-2.13,1.026-2.4,2.399
	c1.659,0.981,3.573,1.211,5.28,1.68c12.747,3.496,22.061,10.451,31.2,17.521c10.447,8.081,20.089,17.381,33.6,22.319
	c1.293-23.826,13.264-36.976,30.24-45.12c-1.134-1.339-2.693-1.993-4.08-2.88c-10.444-6.679-19.693-13.361-28.56-21.601
	c-9.886-9.185-19.471-19.317-23.04-34.319c-6.411-26.946,8.498-49.063,20.88-62.16c4.577-4.841,10.371-8.493,15.12-13.68
	c3.244-3.544,6.424-8.646,6.96-14.4c1.472-15.806-6.568-23.194-12.48-32.4c-5.011-7.803-10.199-16.023-10.8-26.88
	c-0.166-2.992,0.484-5.472,0.24-8.64c-0.241,0.001-0.286-0.194-0.48-0.24C219.349,80.931,214.655,90.31,201.237,88.896z
	 M279.717,155.375c-0.014-0.146-0.036-0.284-0.24-0.24c-1.628-0.783-2.981-2.099-4.56-3.12c-1.341-0.867-3.099-2.217-4.8-1.92
	c0.606,4.294,1.739,8.282,4.08,11.28c2.399,3.071,6.381,4.783,7.92,8.4c-1.339-0.821-1.818-2.502-4.081-2.4
	c-3.635,9.559,7.927,10.509,10.56,16.32c0.971,2.141,1.336,6.449-0.479,9.12c-0.592,0.869-2.124,0.931-1.92,2.16
	c1.921,0.558,4.878,0.081,7.199,0.24c-1.727-8.771-4.191-18.775-6.479-28.8c-2.985-13.078-5.015-26.576-16.8-30.24
	c-1.19,4.234-1.13,9.402,0.96,12c2.463,3.061,7.973,3.134,8.88,7.2C279.877,155.375,279.797,155.375,279.717,155.375z
	 M274.197,206.735c3.462,0.773,6.274-1.05,6-4.8C276.746,201.216,274.159,203.19,274.197,206.735z M335.396,342.335
	c1.051-18.964-6.336-30.821-16.561-40.319c-9.006-8.367-22.188-13.738-36.96-12.721c-16.833,1.161-30.089,10.305-37.92,22.08
	c-5.878,8.839-9.994,20.913-7.68,35.28c0.651,4.041,1.85,7.731,2.88,11.521c-26.88,0.561-54.8,0.08-82.08,0.239
	c0,10.32,0,20.641,0,30.96c3.2,0,6.4,0,9.6,0c0.154-3.926-0.313-8.472,0.24-12c1.921,0.158,4.478-0.317,6,0.24
	c0,3.92,0,7.84,0,11.76c3.68,0,7.36,0,11.04,0c0.154-3.926-0.313-8.472,0.24-12c1.973,0.107,4.407-0.246,6,0.24
	c0,3.92,0,7.84,0,11.76c3.2,0,6.4,0,9.6,0c0-6.319,0-12.64,0-18.96c15.68,0,31.36,0,47.04,0c9.567,10.475,22.664,18.809,41.04,18
	c14.539-0.639,25.251-7.011,32.88-14.64c1.201-1.202,2.567-2.965,3.6-3.36c2.382-0.914,6.707-0.051,10.08,0
	c11.113,0.17,22.521-0.226,32.16,0.24c-2.031,6.636-0.255,15.303,5.28,17.279c0.563-5.998,0.654-10.931,2.88-15.119
	c0.87-1.639,2.631-2.728,3.12-4.32c0.62-2.016,0.532-6.121,0-7.92c-0.507-1.714-2.256-3.146-3.12-5.04
	c-1.925-4.215-2.732-8.671-2.88-14.399c-5.383,2.043-7.595,10.508-5.28,17.279c-11.6-0.159-23.84,0.32-35.039-0.239
	C333.361,353.235,335.07,348.239,335.396,342.335z M374.757,345.216c0.444,6.105,2.337,11.092,5.761,14.399
	c5.815-3.944,10.418-9.019,12.721-16.8c2.3-7.778,1.609-17.139,6.238-23.28C383.572,320.132,373.598,329.278,374.757,345.216z
	 M398.757,327.455c-0.931,4.51-2.138,8.742-2.16,14.16c4.814-1.831,11.693-3.029,18-1.92c3.533-3.027,6.136-6.985,8.16-11.521
	C414.217,328.476,405.764,322.885,398.757,327.455z M395.396,344.735c-0.691,2.188-2.07,3.688-2.641,6
	c2.958-1.25,5.516-2.453,9.12-2.641c7.636-0.396,13.655,4.321,18.24,7.439c2.867-2.172,5.274-4.806,6.72-8.399
	C420.284,341.468,404.159,340.175,395.396,344.735z M400.438,350.735c-9.457,0.977-11.781,9.064-19.681,12c0,1.68,0,3.359,0,5.04
	c7.882,3.386,10.728,11.807,21.12,12.239c11.704,0.487,17.321-7.83,22.8-14.88C418.635,358.419,413.168,349.421,400.438,350.735z
	 M374.757,391.775c1.202,12.322,11.905,18.511,24.24,19.439c0.269-0.023,0.373,0.35,0.479,0c-0.146-0.014-0.283-0.036-0.238-0.24
	c-4.444-6.295-3.593-15.557-6.001-23.279c-2.332-7.484-6.988-13.016-12.961-16.561C376.136,375.81,373.939,383.396,374.757,391.775z
	 M419.396,375.216c-3.132,3.358-9.055,6.739-15.12,7.199c-4.127,0.313-7.661-0.786-11.521-2.16c0.889,1.753,1.787,3.493,2.4,5.521
	c8.497,4.56,26.231,3.872,31.68-2.88C424.682,380.011,423.106,376.546,419.396,375.216z M398.757,403.295
	c7.214,4.503,16.207-1.414,24-0.72c-0.938-2.317-2.023-4.288-3.6-6.479c-1.019-1.415-3.093-4.656-5.04-5.04
	c-1.372-0.271-3.118,0.46-4.562,0.479c-4.511,0.061-9.484-1.354-13.438-2.399C397.215,393.637,397.494,398.958,398.757,403.295z"/>
<g>
	<path fill="#F9F631" stroke="#000000" d="M239.97,358.48c-0.065,0.005-0.124,0.02-0.192,0.02c0.022,0.087,0.046,0.175,0.063,0.26
		h-82.08v30h8.4c0.16-3.92-0.318-8.478,0.24-12h7.2v12h9.84c0.16-3.92-0.318-8.478,0.24-12c2.322,0.16,5.28-0.314,7.2,0.24v11.76
		h8.4V369.8h47.445c0.02-0.047,0.04-0.093,0.063-0.14C244.039,366.273,241.742,362.52,239.97,358.48L239.97,358.48z M377.359,360.68
		c-0.286-1.174-1.657-2.428-2.399-3.84c-2.228-4.245-3.253-9.058-3.601-15.12c-3.215,2.045-5.633,7.41-5.039,12.723
		c0.175,1.557,1.103,2.909,0.959,4.317h-35.406c-0.471,0.168-0.965,0.13-1.418-0.05c-1.705,3.836-3.862,7.43-6.454,10.673
		c0.229,0.104,0.42,0.25,0.59,0.412c2.597-0.794,7.397,0.006,10.772,0.006c11.052,0,22.394-0.191,32.16,0.24
		c-2.645,6.03-0.523,14.4,3.84,17.04c0.437-5.716,1.14-10.432,3.119-14.64c0.824-1.75,2.511-2.926,2.881-4.563
		c0.369-1.647,0.334-5.826,0-7.2L377.359,360.68L377.359,360.68z"/>
	<path fill="#FFA500" stroke="#FFFF00" d="M442.16,253.16c-8.914-0.43-17.65-1.645-18.72-9.36c-0.744-5.383,1.737-9.284,3.84-12.72
		c4.937-8.075,13.082-16.386,21.6-19.2c-2.174-2.615-5.613-3.387-10.56-3.84c-3.641-0.333-10.632,0.417-12.48-1.92
		c-2.437-3.086,0.99-9.63,2.16-12.96c4.83-13.722,2.644-33.34-0.72-46.8c0.015,7.746-2.138,13.483-5.04,17.76
		c-0.979,1.44-1.98,2.893-3.12,3.84c0.125-14.916-3.332-24.825-9.12-34.32c-2.67-4.383-5.4-9.353-6.478-15.36
		c-1.082-6.032-0.785-12.848,0.237-20.16c-5.021,2.177-8.729,7.75-11.277,13.2c-9.961-11.282-18.99-24.887-27.36-37.44
		c-1.192-1.79-2.278-3.666-3.84-5.04c0.952,1.94,1.663,3.632,2.399,6.48c0.396,1.53,1.826,6.045-0.959,6.72
		c-2.135,0.516-5.664-2.243-7.201-3.36c-6.42-4.664-11.352-10.87-16.319-15.84c-6.786-6.786-12.943-13.924-19.681-20.16
		c-0.336-0.312-1.062-1.8-1.199-0.72c4.783,9.572,8.587,19.013,11.76,29.76c1.061,3.59,2.4,7.36,2.4,11.521
		c0,5.75-2.178,10.44-4.563,14.88c-2.357,4.397-4.82,8.197-7.438,12.24c-5.271,8.135-10.811,16.122-11.521,27.6
		c-0.464,7.446,1.13,13.788,3.84,18.48c5.65,9.788,14.993,14.836,22.32,23.28c3.398,3.92,7.51,8.806,8.641,14.4
		c2.566,12.708-6.453,23.464-12.721,28.8c-7.038,5.992-15.643,10.494-27.602,10.08c-5.049-3.757-7.438-8.988-6.722-16.32
		c0.421-4.31,1.729-8.45,1.199-12.72c-0.106-0.865-0.414-2.108-0.72-2.88c-0.782-1.977-3.367-3.782-4.08-5.52
		c-0.122-0.298-0.229-0.662-0.327-1.056h-6.515c-2.099,0.466-4.238,0.158-6.118,0.576c-2.636,0.585-5.506,2.386-7.2,4.08
		c-2.673,2.673-4.396,6.537-4.32,12c-3.48,2.815-3.024,10.16,0.48,12.72c-0.027-3.782,2.274-6.032,4.56-7.2
		c1.172-0.6,2.52-0.59,3.84-1.2c3.543-1.638,6.008-6.045,9.36-5.52c0.523,3.272-1.673,5.617-3.36,7.68
		c-3.635,4.445-7.516,7.618-12.48,11.04c-2.12,1.462-5.33,4.007-7.44,4.32c-3.036,0.45-7.51-1.18-10.8-2.4
		c-9.585-3.553-17.34-10.15-21.84-18c-2.158-3.768-4.425-8.946-4.32-14.4c0.13-6.64,3.79-11.987,7.44-16.56
		c3.697-4.632,8.02-8.503,12-12c8.51-7.472,16.863-15.22,15.84-31.68c-0.7-11.305-6.483-19.825-11.52-27.6
		c-5.045-7.792-12-16.18-12-27.12c0-3.9,1.114-7.968,2.16-11.521c3.11-10.55,7.776-20.917,12-29.76
		c-0.313-0.757-1.093,0.382-1.2,0.48c-0.416,0.382-0.814,1.048-1.2,1.44c-6.35,6.48-12.06,12.54-18.48,18.96
		c-5.044,5.045-10.14,11.252-16.32,15.84c-1.468,1.09-5.247,4.054-7.44,3.36c-2.393-0.758-1.2-5.147-0.72-6.96
		c0.717-2.707,1.97-4.73,2.16-6.48c-9.493,13.343-18.394,28.422-28.8,40.56c-0.606,0.71-1.23,1.93-2.4,1.92
		c-1.983-4.63-5.398-9.743-9.36-12.24c-0.264-0.167-1.266-1.203-1.68-0.48c1.063,7.208,1.31,13.958,0.24,19.92
		c-1.077,6.01-3.813,10.985-6.48,15.36c-5.817,9.547-9.27,19.513-9.12,34.56c-1.912-2.826-4.52-5.413-6-8.88
		c-1.61-3.78-1.46-8.17-2.4-12.96c-1.573,10.373-4.13,20.937-3.36,33.36c0.27,4.304,1.427,9.47,2.88,13.68
		c1.07,3.095,4.826,9.994,2.16,12.96c-1.88,2.093-9.014,1.342-12.48,1.68c-4.936,0.48-8.35,1.22-10.56,3.84
		c5.43,1.667,11.085,6.078,15.84,11.28c4.46,4.88,9.01,10.876,9.6,17.76c0.905,10.525-9.288,11.77-18.96,12.24
		c2.63,2.377,5.822,4.486,9.12,6.96c6.282,4.71,12.54,9.45,18,15.12c2.566,2.662,5.9,6.168,6.48,10.32
		c0.684,4.871-2.717,5.627-6,7.68c-5.132,3.209-9.33,6.664-10.32,13.68c5.298-1.471,10.073-3.059,16.8-2.641
		c17.18,1.065,26.903,12.044,37.68,20.881c11.517,9.439,22.89,16.44,36.38,22.273c-0.48-2.746-0.746-5.563-0.746-8.444
		c0-19.87,11.934-36.96,29.073-44.647c0.352-0.762,1.065-1.343,2.16-1.343c0.292,0,0.548,0.053,0.787,0.127
		c5.407-2.017,11.26-3.126,17.378-3.126c27.283,0,49.399,21.934,49.399,48.99c0,2.807-0.26,5.55-0.72,8.227
		c0.16-0.015,0.324-0.014,0.486,0.005c13.526-5.694,24.946-12.765,36.438-22.062c10.979-8.883,20.156-19.91,37.681-20.881
		c6.634-0.366,11.313,1.173,16.562,2.641c-0.097-4.384-2.483-6.477-4.32-9.12c-1.997-1.498-3.71-3.002-6.239-4.56
		c-3.074-1.896-6.421-2.895-5.761-7.92c0.469-3.563,3.794-7.291,6.48-10.08c2.933-3.045,5.6-5.44,8.64-7.92
		c5.898-4.813,12.33-8.86,17.76-13.44C441.597,253.952,443.021,253.544,442.16,253.16L442.16,253.16z"/>
	<path stroke="#000000" d="M274.88,206.12c0.37-2.512,1.666-4.095,4.8-3.84C279.557,205.036,278.04,206.398,274.88,206.12z"/>
	<path fill="#00FF00" stroke="#000000" d="M274.88,206.12c3.16,0.278,4.677-1.084,4.8-3.84
		C276.546,202.025,275.25,203.608,274.88,206.12z"/>
	<path fill="#FF0000" stroke="#000000" d="M292.16,191.48c-2.21-9.92-4.278-19.83-6.48-29.04
		c-2.575-10.782-4.538-21.596-15.118-25.68c-1.176,3.796-0.725,8.16,0.96,10.56c2.238,3.19,9.128,3.733,9.12,8.88
		c-2.508-1.27-5.25-3.343-7.68-4.8c-0.846-0.506-2.157-1.574-2.4-0.96c1.336,5.284,2.778,9.376,6,12.24
		c2.876,2.557,5.813,5.095,7.2,8.4c-2.255-0.485-3.46-3.234-5.28-3.36c-2.854,8.99,8.374,9.99,10.8,15.84
		c1.165,2.813,0.667,7.49-1.2,10.32c-0.592,0.3-1.193,0.49-1.8,0.625h6.513C292.559,193.562,292.372,192.429,292.16,191.48
		L292.16,191.48z"/>
</g>
<path d="M450.654,417.4h72.479V433c-158.084-0.16-316.793,0.32-474.482-0.24c0.156-5.043-0.314-10.715,0.24-15.357h72.24
	c0.79,0.176,0.367-0.479,0-0.48c-29.918-29.49-52.862-65.155-65.04-111.84c-6.21-23.813-8.81-53.614-6.24-80.4
	c5.118-53.33,24.396-93.488,50.64-126.24c26.424-32.974,59.397-58.16,102.48-74.4c18.61-7.013,39.03-12.322,63.12-14.16
	c10.517-0.8,21.517-1.1,33.36-0.478c20.943,1.098,41.191,5.11,57.84,10.56c23.574,7.72,43.547,17.234,61.44,29.52
	c36.813,25.275,64.147,57.522,83.277,98.64c9.51,20.442,16.836,44.37,19.683,71.28c2.947,27.926,0.963,57.55-5.04,82.562
	C505.025,350.422,480.365,387.814,450.654,417.4L450.654,417.4z M494.334,314.2c7.127-22.162,11.873-49.023,10.56-76.8
	c-1.3-27.536-6.917-51.138-15.355-72.24c-16.478-41.174-42.926-73.03-77.28-97.68c-16.773-12.04-36.188-21.93-58.08-29.28
	c-24.332-8.17-56.188-12.97-87.602-10.08c-9.74,0.895-18.747,2.37-27.6,4.32c-34.495,7.596-62.862,21.7-86.88,40.56
	c-31.94,25.08-56.926,57.163-71.76,98.16c-7.647,21.126-13.2,44.67-13.2,71.76c0,13.53,0.763,27.225,2.88,39.6
	c2.086,12.201,5.115,23.19,8.64,33.843c13.033,39.38,35.84,70.875,64.08,95.277c1.95,1.688,3.726,3.925,5.76,5.04
	c1.134,0.622,1.4,0.616,3.12,0.723c11.07,0.666,22.59,0,33.84,0h237.36C454.314,391.07,480.268,357.94,494.334,314.2L494.334,314.2z
	"/>
<g>
	<path d="M499.335,396.5v2.64h-4.8c-0.563,4-0.08,9.04-0.24,13.44h-3.36v-13.44h-5.04v-2.64H499.335L499.335,396.5z M506.295,396.5
		c1.313,3.73,2.643,7.438,3.84,11.28c1.145-3.898,2.488-7.593,3.84-11.28h4.803c0.18,5.58,0.691,10.825,1.197,16.08h-3.357
		c-0.25-4.63-0.783-8.979-0.72-13.92c-1.395,4.605-2.825,9.175-4.32,13.68h-3.36c-1.383-4.297-2.952-8.407-3.84-13.2
		c-0.592,4.208-0.676,8.925-0.96,13.44h-3.12c0.208-5.552,0.647-10.873,1.2-16.08H506.295L506.295,396.5z"/>
</g>
<path d="M75.08,446.28h14.16c6.04,13.479,12.112,26.928,18.24,40.317c6.596-13.164,12.385-27.136,18.96-40.317h14.4v2.16
	c-0.93,1.294-4.016,0.439-5.76,1.438c-2.13,1.218-1.808,6.673-1.68,11.28c0.22,7.938,0.5,15.365,0.72,23.279
	c0.12,4.266-0.436,9.818,1.2,11.761c1.253,1.482,4.81,1.229,6.48,1.92v1.92c-0.51,0.908-1.792,0.462-2.64,0.479
	c-6.11,0.129-13.88,0.099-19.92-0.239v-1.92c0.44-0.887,1.842-0.559,2.64-0.723c1.34-0.275,2.88-0.607,3.6-1.682
	c1.243-1.85,0.72-6.36,0.72-9.84c0-10.297-0.174-22.16-0.24-31.2c-5.988,12.723-12.114,26.485-18,40.08
	c-0.804,1.854-1.555,5.098-3.36,4.8c-1.323-0.218-2.008-3.757-2.64-5.28c-5.178-12.466-11.187-25.762-16.08-38.397
	c-0.715,7.979-1.68,20.303-1.68,29.521c0,3.646-0.56,7.854,0.72,9.842c1.394,2.16,4.65,1.704,6.96,2.641v2.399H72.2v-2.159
	c1.073-1.23,3.296-0.759,4.8-1.683c2.542-1.56,2.874-7.175,3.36-12c0.4-3.966,0.474-7.912,0.72-11.76
	c0.558-8.72,2.352-17.316,0-22.56c-1.694-0.866-3.918-1.202-6.24-1.44C74.992,448.112,74.53,446.69,75.08,446.28L75.08,446.28z
	 M148.28,446.28h36.96c0.242,1.958,0.33,4.253,0.48,6.479c0.14,2.087,0.658,4.438-0.24,6c-0.422,0.141-1.41-0.29-1.44,0.24
	c-1.3-0.834-1.182-3.164-1.92-4.8c-0.587-1.302-1.597-3.153-2.88-3.84c-1.837-0.985-5.176-0.858-7.92-0.96
	c-2.766-0.105-5.722-0.16-8.16,0.478c-0.553,6.487-0.085,13.995-0.24,20.88c4.734-0.6,10.425,1.104,13.68-0.72
	c2.11-1.182,1.66-3.258,2.88-5.521h2.16c0.398,4.811,0.398,11.272,0,16.08c-3.712,1.013-2.113-2.017-3.6-4.317
	c-2.24-3.471-8.896-1.302-15.12-1.92v10.8c0,4.142-0.716,9.645,1.92,11.277c1.426,0.888,4.933,0.961,7.68,0.961
	c6.714,0,10.31-1.184,12.72-5.278c0.508-0.862,0.785-2.007,1.2-2.88c0.398-0.837,0.775-1.833,1.44-2.4
	c0.988-0.187,1.23,0.37,2.16,0.24c-0.256,4.15-1.897,8.978-2.64,13.438c-13.44-0.157-27.52,0.32-40.56-0.237v-1.92
	c0.82-0.936,2.642-0.62,4.08-0.962c1.355-0.318,2.8-0.733,3.36-1.681c1.148-1.936,0.72-7.603,0.72-11.52v-24
	c0-3.945,0.142-9.052-1.68-10.32c-1.286-0.897-4.453-0.63-5.52-0.96C147.95,448.028,147.41,446.45,148.28,446.28L148.28,446.28z
	 M192.68,446.28c3.405,0.77,8.08-1.013,11.76,0c1.305,0.354,3.135,3.063,4.56,4.8c9.577,11.663,20.322,24.223,29.76,35.28
	c-0.065-7.663,0.194-18.125-0.24-26.4c-0.33-6.323,0.204-9.646-5.278-10.8c-1.84-0.387-4.165,0.256-3.12-2.16
	c0.455-1.054,2.4-0.72,4.56-0.72c4.967,0,10.62-0.19,14.88,0.237v1.923c-0.495,0.979-1.994,0.474-2.88,0.72
	c-0.83,0.229-1.788,0.647-2.4,1.2c-1.958,1.757-1.878,7.297-1.92,11.277c-0.132,12.593,0.1,27.537,0,38.88
	c-0.717-0.147-1.592,0.196-2.4,0c-1.38-0.336-3.172-3.593-4.56-5.277c-10.086-12.271-20.77-25.327-30.72-37.2
	c0.006,8.22-0.085,20.313,0.24,28.8c0.127,3.313,0.14,6.521,1.44,8.16c1.65,2.086,4.285,1.434,6.72,2.4v1.68
	c-0.276,0.905-1.513,0.462-2.16,0.479c-5.23,0.15-12.124,0.083-17.28-0.237v-1.683c0.73-1.02,3.458-0.819,4.8-1.68
	c2.498-1.595,2.543-6.33,2.64-11.28c0.13-6.576,0.24-13.945,0.24-20.88c0-3.67,0.188-7.568-0.48-9.84
	c-0.966-3.296-4.635-4.903-8.4-5.04c0.15-0.808-0.31-2.229,0.24-2.64L192.68,446.28L192.68,446.28z M293.96,446.28
	c0.761,0.512,0.66,2.208,0.72,3.357c0.174,3.354,0.264,7.79,0.721,11.28c-0.965-0.166-1.371,0.23-2.158,0.24
	c-1.04-0.48-0.695-1.762-0.963-2.643c-0.579-1.947-1.955-5.8-3.84-6.72c-2.48-1.217-5.877-0.036-9.837-0.479
	c-0.43,9.288-0.24,22.428-0.24,33.6c0,3.813-0.632,8.345,0.48,10.56c1.39,2.766,5.376,1.75,7.682,2.883v1.68
	c-0.486,0.908-1.833,0.46-2.642,0.479c-6.508,0.154-14.682,0.08-21.12-0.237c-1.185-3.94,3.627-1.692,6.24-3.36
	c0.888-0.563,1.495-2.11,1.68-3.6c0.706-5.662,0-13.395,0-20.88V451.56c-3.565-0.159-7.394-0.734-9.84,0.24
	c-3.108,1.24-3.368,6.125-4.8,9.36h-2.4c0.406-4.955,0.438-10.284,1.2-14.88c1.782-0.375,2.345,1.768,4.08,2.159
	c3.573,0.806,9.597,0,15.36,0c5.638,0,11.625,0.698,15.36,0C291.457,448.1,292.55,446.046,293.96,446.28L293.96,446.28z
	 M339.08,465.96c-0.322-0.557-0.396-1.362-0.721-1.92c2.41-2.303,7.108-2.95,6.24-8.16c-0.174-1.027-1.27-2.68-2.399-3.36
	c-1.738-1.045-3.41-0.635-3.841-1.92c-0.687-2.047,1.537-4.175,3.601-4.317c5.458-0.382,9.618,6.524,7.681,12
	C348.206,462.334,343.922,464.736,339.08,465.96L339.08,465.96z M382.282,448.2c0.245,3.755,1.457,7.817,1.2,11.28
	c-3.045,1.647-3.25-2.938-4.08-4.563c-0.934-1.813-2.897-4.295-4.803-5.04c-6.063-2.376-11.467,1.53-12.24,5.76
	c-0.323,1.774-0.555,6.146,0,7.683c0.527,1.453,3.361,2.798,5.521,3.84c7.601,3.663,18.118,7.397,18.24,17.76
	c0.157,13.422-17.25,19.67-30,12.72c-0.546-2.88-1.554-6.313-1.92-9.84c-0.103-0.976-0.507-2.41,0.239-3.12
	c2.615-1.859,3.115,3.12,3.84,4.563c2.248,4.463,5.313,8.048,11.041,8.16c6.805,0.136,11.22-5.573,8.88-12.479
	c-2.702-7.978-16.948-9.38-21.36-17.76c-2.529-4.807-1.117-11.846,1.44-15.12C362.614,446.492,373.6,444.746,382.282,448.2
	L382.282,448.2z M428.362,446.52v1.923c-0.597,0.987-1.857,0.563-2.643,0.72c-1.41,0.286-3.136,0.678-3.84,1.92
	c-1.12,1.973-0.722,6.271-0.722,9.84v10.563c5.076-1.683,8.238-5.997,11.52-9.603c3.246-3.563,7.45-6.731,9.36-11.52
	c-0.663-1.498-3.59-0.732-4.8-1.683v-2.157c6.242-0.563,13.518-0.083,20.16-0.24v2.64c-7.277,0.271-11.726,4.282-15.603,8.16
	c-3.96,3.96-7.846,7.994-11.76,12c5.29,6.922,11.45,14.372,17.52,21.36c3.14,3.607,5.921,6.604,11.28,7.68v2.4h-13.2
	c-6.135-6.447-11.707-14.053-17.52-21.12c-1.822-2.218-3.662-5.101-6.72-5.521c-0.433,2.916-0.24,7.246-0.24,11.278
	c0,4.109-0.395,8.43,0.96,10.56c1.43,2.26,3.85,1.519,6.72,2.4v2.398h-22.32v-2.158c0.28-0.862,1.616-0.51,2.643-0.723
	c2.54-0.522,3.918-1.083,4.318-4.317c0.674-5.393,0-12.131,0-19.92c0-7.73,0.625-14.903,0-19.921
	c-0.471-3.779-3.218-4.422-7.198-4.562c0.147-0.892-0.393-2.47,0.479-2.64C413.884,446.438,421.64,445.963,428.362,446.52
	L428.362,446.52z M464.6,446.28h36.965c0.354,3.81,0.817,8.777,0.72,12.237c-0.696,0.266-1.702,0.22-2.4,0.48
	c-1.41-3.244-1.218-7.043-4.317-8.64c-3.639-1.874-11.32-0.778-16.08-0.48c-0.555,6.407-0.085,13.834-0.24,20.64
	c4.585-0.197,11.464,1.568,14.398-0.96c1.572-1.354,0.992-3.06,2.159-5.04h2.16c0.558,4.887,0.083,10.8,0.24,16.08
	c-4.103,1.4-2.43-3.174-4.32-5.04c-2.93-2.896-8.72-0.294-14.397-1.197c0.72,5.579-2.547,19.271,1.68,22.079
	c1.313,0.868,5.378,0.951,7.68,0.961c6.173,0.018,9.9-0.86,12.24-4.563c0.71-1.12,1.229-2.813,1.92-4.08
	c0.753-1.37,1.26-2.574,3.602-1.68c-0.789,4.646-1.922,8.96-2.879,13.438c-13.438-0.157-27.521,0.32-40.561-0.237v-1.92
	c0.616-0.845,2.653-0.616,4.08-0.96c4.767-1.154,4.08-4.607,4.08-11.763c0-9.58,0.792-23.755,0-31.682
	c-0.173-1.714-0.675-3.41-1.682-4.08c-1.305-0.867-4.686-0.521-5.521-1.2C464.249,447.848,463.764,446.404,464.6,446.28
	L464.6,446.28z M527.24,446.52c1,3.963-3.83,2.093-5.038,3.843c-0.008,2.33,1.412,4.22,2.396,6
	c2.953,5.317,5.933,10.483,8.881,16.08c1.435-1.09,2.107-3.143,3.119-5.04c1.813-3.389,3.498-6.471,5.521-10.563
	c0.804-1.623,2.493-4.37,2.16-5.76c-0.524-2.188-3.78-1.606-5.763-2.16v-2.64h18.723v2.64c-5.61,0.06-7.908,3.27-10.563,7.44
	c-2.544,4-5.058,8.353-7.438,12.72c-1.313,2.408-3.295,5.268-3.603,7.438c-0.45,3.229-0.498,13.269,0,16.803
	c0.56,3.962,3.498,4.42,8.16,4.56v2.64h-24.24v-2.64c4.908-0.215,7.681-0.427,8.16-5.28c0.391-3.92,0.38-12.35-0.24-15.12
	c-0.516-2.31-2.188-4.907-3.6-7.438c-2.543-4.565-5.387-9.196-8.16-13.92c-2.227-3.79-3.842-7.12-9.12-7.2
	c0.15-0.89-0.39-2.47,0.48-2.64C513.724,446.438,521,445.963,527.24,446.52L527.24,446.52z M68.36,498.12v2.397H47.72v-2.157
	c0.49-0.874,1.876-0.595,2.88-0.96c0.893-0.327,1.813-0.59,2.16-1.44c-0.847-5.473-3.294-9.346-4.56-14.4H31.4
	c-0.903,1.438-1.66,4.16-2.64,6.96c-0.85,2.431-2.31,5.509-1.68,7.2c0.68,1.83,2.946,1.94,5.76,2.16v2.641h-18v-2.641
	c8.003,0.072,9.134-8.484,11.52-14.64C30.774,471.856,36.773,457.637,41,447c1.106,0.27,2.178-1.23,2.88,0
	c1.687,2.95,3.084,8.6,4.32,12c3.11,8.555,6.334,17.093,9.36,25.44c1.194,3.293,2.77,9.97,5.28,12
	C64.424,497.72,66.583,497.488,68.36,498.12z M32.6,477.72c4.644,0.156,9.915-0.313,14.16,0.24
	c-2.254-6.785-4.433-13.647-6.96-20.16C37.462,464.503,34.847,470.928,32.6,477.72z M320.84,446.52
	c1.697,1.521,1.86,4.097,2.641,6.24c4.557,12.521,9.021,26.057,14.399,38.88c1.597,3.807,2.81,6.309,7.92,6.24v2.64h-20.64v-2.397
	c1.998-0.786,4.3-0.334,5.04-1.92c0.707-1.508-1.063-5.03-1.921-7.438c-1.026-2.896-2.012-5.51-2.639-7.199H309.08
	c-1.072,1.354-1.68,4.006-2.641,6.722c-0.854,2.407-2.373,5.41-1.92,7.2c0.568,2.255,3.479,1.897,6,2.64v2.4h-18v-2.16
	c0.836-0.882,2.528-0.776,3.84-1.2c3.363-1.088,5.57-8.188,6.961-11.76c4.938-12.72,10.455-26.912,15.359-38.4
	c1.008,0.125,1.34-0.42,2.158-0.479L320.84,446.52L320.84,446.52z M310.279,477.72c4.641-0.16,9.921,0.32,14.16-0.237
	c-2.604-6.193-4.352-13.25-6.959-19.44C314.92,464.44,312.486,470.966,310.279,477.72z"/>
<path fill="#CCCCCC" stroke="#000000" d="M334.96,338.72c0-27.055-22.116-48.987-49.399-48.987
	c-27.283,0-49.398,21.936-49.398,48.988c0,2.883,0.267,5.702,0.748,8.448c0.033,0.015,0.065,0.03,0.1,0.044
	c0.06,0.71,0.18,1.402,0.32,2.087c0.1,0.442,0.198,0.886,0.31,1.324c0.616,2.307,1.504,4.446,2.094,6.38
	c2.092,5.152,5.04,9.87,8.673,13.98c3.68,3.965,7.673,7.354,12.262,10.042c0.172,0.1,0.345,0.195,0.52,0.297
	c0.438,0.25,0.883,0.492,1.333,0.729c0.287,0.15,0.58,0.296,0.87,0.44c0.416,0.208,0.834,0.414,1.26,0.608
	c0.224,0.104,0.45,0.201,0.676,0.305c4.124,1.825,8.71,3.147,13.924,3.886c1.882,0.265,3.838,0.205,5.938,0.406
	c0.125,0,0.248,0.01,0.373,0.01c27.281,0,49.399-21.933,49.399-48.987H334.96L334.96,338.72z M271.567,380.813
	c-7.784-2.881-14.943-8.738-19.92-15.358c-5.273-7.019-8.186-16.71-7.44-27.84c0.73-10.891,5.268-19.633,11.52-25.92
	c6.18-6.212,14.976-11.23,25.44-12.003c12.515-0.92,22.875,3.766,30,10.083c7.646,6.775,12.653,15.229,12.72,27.84
	c0.057,10.271-2.67,17.842-7.438,23.76c-1.545,1.917-3.41,4.417-5.278,5.28c-2.016,0.93-5.356,1.344-7.68,1.92
	c-2.604,0.646-5.052,1.102-7.202,2.16c-5.146,2.53-7.143,6.602-10.803,12C280.673,383.298,275.551,382.286,271.567,380.813
	L271.567,380.813z"/>
<path d="M282.35,377.517c-9.752-1.056-17.317-5.598-22.562-11.277c-5.613-6.082-9.36-14.236-9.36-24.48
	c0-20.037,13.99-34.434,32.88-35.76c14.27-1,27.314,8.63,31.92,17.52c3.438,6.643,4.563,18.837,1.197,27.603
	c-1.38,3.597-4.367,9.146-7.92,10.802c-2.127,0.99-4.646,1.162-6.72,1.68c-5.353,1.33-10.003,3.124-13.438,6.48
	c-2.074,2.021-3.445,4.638-6,7.437L282.35,377.517z"/>
<g>
	<path fill="#A600B5" d="M399.558,319.28c-1.938,3.229-3.263,6.797-4.079,10.8c-0.859,4.206-0.905,8.685-2.16,12.72
		c-2.359,7.585-7.168,12.954-12.961,16.801c-6.938-7.88-7.5-24.66-0.721-31.921C384.232,322.758,390.938,319.678,399.558,319.28z"/>
	<path fill="#CC00CF" d="M422.836,327.92c-1.946,4.612-4.638,8.482-8.16,11.521c-6.598-0.744-13.563-0.032-18,2.156
		c-0.024-4.509,1.177-9.86,2.16-14.156C406.075,322.392,414.377,328.717,422.836,327.92z"/>
	<path fill="#AD00A1" d="M426.916,347.12c-1.502,3.538-4.112,5.966-6.72,8.397c-3.814-2.725-8.701-6.843-15.12-7.438
		c-4.632-0.434-8.893,0.658-12.24,2.64c0.229-1.691,1.982-3.936,2.643-6C404.461,339.893,420.092,341.316,426.916,347.12z"/>
	<path fill="#5E00B5" d="M424.756,365.12c-4.724,6.084-10.685,14.283-21.12,14.64c-11.659,0.399-14.327-8.5-22.8-12
		c0-1.68,0-3.356,0-5.04c8.785-3.452,10.807-13.229,24-12C414.146,351.588,419.978,359.101,424.756,365.12z"/>
	<path fill="#E000C7" d="M380.355,370.88c5.679,3.104,10.856,10.082,12.959,17.04c2.308,7.634,1.636,16.853,6.239,23.28
		c-12.452-0.816-23.747-7.304-24.72-20.643C374.336,383.681,376.354,374.938,380.355,370.88z"/>
	<path fill="#D900B8" d="M426.916,382.88c-6.082,6.463-22.979,7.5-31.682,2.643c-0.647-2.069-1.474-3.97-2.642-5.521
		c1.587,0.117,3.021,1.222,4.801,1.68c9.026,2.326,17.806-2.054,22.319-6.72C422.668,376.464,425.065,379.959,426.916,382.88z"/>
	<path fill="#F700D1" d="M396.195,389.12c-0.045-0.204,0.095-0.229,0.24-0.24c4.663,1.788,11.769,3.246,17.999,1.92
		c3.662,2.979,6.313,6.967,8.398,11.521c-7.975-0.748-15.898,5.653-24,0.72C397.563,398.796,397.345,393.493,396.195,389.12z"/>
</g>
<path fill="#ED1C24" stroke="#000000" d="M205.068,223.127c-0.383-10.209,1.935-18.648,5.039-26.16
	c6.39-15.458,15.771-25.127,27.601-35.28c6.099-5.234,11.161-10.75,11.76-19.68c0.931-13.864-6.311-21.695-12-30.48
	c-6.358-9.822-13.239-20.402-10.8-35.52c-0.014-0.146-0.036-0.284-0.24-0.24c-6.242,6.012-13.16,15.302-24.96,13.68
	c-6.552,8.802-15.313,19.521-22.56,28.8c-1.329,1.702-1.998,3.36-4.08,3.36c-2.059,0-2.773-1.421-3.601-2.4
	c-0.021-0.024-0.53-1.356-0.72-0.48c-1.165,5.979-1.902,11.198-4.8,15.84c-2.798,4.481-5.171,8.607-6.96,13.68
	c-3.746,10.622-3.358,27.622-2.88,42.48c-3.605-3.637-7.079-8.852-10.32-12.72c-0.344-0.411-1.442-1.807-1.439-0.96
	c1.113,9.463,7.735,18.529,6.479,29.759c-0.67,5.987-4.578,9.373-9.6,11.521c6.817,4.631,14.286,14.989,13.199,26.641
	c-0.565,6.074-3.852,11.098-7.92,13.679c4.049,2.906,9.52,6.674,13.92,11.521c4.045,4.453,8.601,10.563,8.4,17.039
	c-0.123,3.951-2.353,6.016-4.56,7.684c-0.207,0.152-1.46,0.535-0.721,0.959c15.079,2.861,25.721,10.938,36,18.723
	c10.32,7.811,19.574,16.986,32.641,22.08c1.465-23.336,13.298-36.307,29.761-44.643c-13.362-8.385-24.748-16.35-35.521-27.121
	C215.645,254.344,205.785,242.268,205.068,223.127z"/>
<path fill="#FF7824" stroke="#000000" d="M429.768,217.822c-1.822-0.529-3.154-1.012-4.315-1.92
	c-11.238-8.775-1.025-27.544,1.198-39.359c-3.826,3.623-7.936,10.309-11.762,13.68c0,0,0,0,0-0.001l0,0
	c0.146-4.775,0.283-9.653,0.293-14.429c0.021-10.504-0.595-20.507-3.174-27.811c-1.781-5.042-4.165-9.203-6.96-13.68
	c-2.873-4.601-3.896-9.909-4.562-16.08c-0.396-0.382-0.836,0.337-0.959,0.48c-1.151,1.324-1.379,2.773-3.842,2.64
	c-1.849-0.1-2.518-1.665-3.842-3.36c-6.656-8.527-13.275-16.669-19.438-24.72c-1.082-1.414-1.959-3.118-3.359-4.08
	c-11.652,1.924-19.02-8.631-24.96-13.68c2.185,13.127-2.644,22.729-8.021,31.344c-0.522,0.84-1.051,1.673-1.58,2.497
	c-5.293,8.243-12.44,16.304-13.198,27.6c-0.054,0.784-0.081,1.541-0.086,2.273c-0.073,10.988,5.093,16.408,11.847,22.206
	c5.669,4.867,11.639,10.397,15.842,15.6c8.23,10.189,16.488,24.37,16.838,42.419c0.021,1.203,0.013,2.425-0.039,3.662
	c-0.771,19.349-10.771,31.17-21.118,41.521c-10.729,10.729-22.962,19.114-35.521,27.358c4.706,2.246,8.997,4.906,12.771,8.088
	c6.532,5.514,11.5,12.594,14.372,21.77c0.26,0.827,0.508,1.664,0.729,2.525c0.009,0.023,0.015,0.052,0.021,0.076
	c0.947,3.654,1.58,7.627,1.869,11.938c13.076-5.091,22.314-14.267,32.641-22.08c10.338-7.821,21.23-16.084,36.238-18.72
	c-1.514-1.418-3.854-2.877-4.801-5.279c-0.57-1.451-0.803-2.906-0.771-4.348c0.132-6.23,5.168-12.139,8.689-16.057
	c4.398-4.89,9.736-8.688,13.682-11.758c-4.502-2.709-7.352-7.31-7.92-13.438c-0.073-0.799-0.112-1.581-0.119-2.348
	C416.352,230.87,423.611,223.012,429.768,217.822z"/>
<path fill-rule="evenodd" clip-rule="evenodd" fill="#FFFFFF" d="M275.978,27.58c28.307-1.348,55.691,2.992,77.52,10.32
	c43.911,14.742,77.862,39.637,103.921,71.76c12.888,15.888,23.809,33.729,32.399,55.2c8.188,20.465,13.899,44.598,15.36,72.48
	c1.491,28.467-3.094,54.563-10.561,76.801c-12.871,38.337-32.956,68.28-60.239,93.359c-1.64,1.508-3.58,3.378-5.761,5.28
	c-2.142,1.868-4.688,4.8-6.96,4.8c-79.324-0.002-157.221,0.001-236.4,0c-11.186,0-22.344,0.901-33.12,0
	c-4.614-0.386-6.77-3.769-9.84-6.479c-27.902-24.637-50.389-55.688-63.6-95.04c-3.594-10.705-6.627-21.977-8.64-33.841
	c-4.137-24.386-3.703-54.711,1.2-78.24c12.114-58.128,41.318-99.525,80.88-130.8c15.904-12.572,33.653-22.751,54-30.72
	C226.606,34.444,249.61,28.835,275.978,27.58z"/>
</svg>
